<?xml version="1.0" standalone="no"?>
<!DOCTYPE svg PUBLIC "-//W3C//DTD SVG 20010904//EN"
 "http://www.w3.org/TR/2001/REC-SVG-20010904/DTD/svg10.dtd">
<svg version="1.0" xmlns="http://www.w3.org/2000/svg"
 width="370.000000pt" height="370.000000pt" viewBox="0 0 370.000000 370.000000"
 preserveAspectRatio="xMidYMid meet">

<g transform="translate(0.000000,370.000000) scale(0.100000,-0.100000)"
fill="#000000" stroke="none">
<path d="M560 2731 l0 -61 79 0 79 0 4 -66 c3 -59 1 -65 -15 -60 -16 4 -18 0
-13 -32 3 -20 8 -70 12 -111 l6 -74 94 7 c52 3 94 3 94 -1 0 -5 7 -82 15 -173
21 -230 23 -210 -30 -210 -25 0 -45 5 -45 10 0 6 -23 10 -50 10 l-51 0 7 -52
c4 -30 15 -62 25 -74 24 -26 24 -61 2 -67 -64 -18 -70 -17 -114 18 -24 19 -45
33 -46 31 -1 -1 0 -26 4 -54 4 -34 10 -52 19 -52 8 0 14 -11 14 -25 0 -16 11
-35 27 -49 l27 -24 -52 -7 -53 -7 5 -42 c3 -22 8 -68 12 -101 5 -50 12 -66 46
-105 l40 -45 -46 -3 c-43 -3 -46 -5 -46 -31 0 -17 11 -38 30 -56 17 -16 30
-34 30 -40 0 -6 12 -23 28 -38 20 -19 34 -25 51 -20 26 7 41 -9 41 -43 0 -34
23 -69 84 -134 53 -55 89 -74 98 -51 2 5 32 18 68 29 l65 21 27 -30 c26 -27
33 -29 97 -29 38 0 71 4 73 9 2 5 54 25 117 45 l115 35 48 -36 c26 -21 48 -41
48 -45 0 -4 42 -8 94 -8 88 0 95 -2 130 -29 l36 -29 75 26 c70 25 73 27 40 30
-47 4 -44 17 9 35 44 15 46 15 71 -9 24 -22 35 -24 117 -24 85 0 95 -2 140
-31 l49 -31 82 30 82 31 -47 0 c-27 1 -48 4 -48 9 0 4 43 23 95 42 52 18 95
37 95 40 0 3 36 19 80 35 l80 29 0 89 0 88 30 10 c25 9 30 16 30 45 l0 34 60
0 c33 0 60 -4 60 -10 0 -5 9 -10 19 -10 23 0 27 23 36 203 5 112 4 117 -15
117 -11 0 -20 -4 -20 -10 0 -5 -25 -10 -55 -10 l-55 0 0 65 0 65 -82 0 c-51 0
-93 -5 -109 -14 -15 -7 -50 -19 -78 -27 -28 -7 -51 -16 -51 -19 0 -4 -36 -15
-80 -25 -44 -10 -80 -23 -80 -28 0 -5 -7 -7 -15 -3 -8 3 -15 1 -15 -4 0 -5 8
-10 18 -12 9 -2 -39 -2 -108 0 -71 3 -129 9 -137 16 -28 25 -41 34 -69 50 -16
10 -21 15 -12 12 9 -3 18 -2 20 2 7 15 196 52 268 52 54 0 125 13 254 44 l179
44 101 -36 c84 -31 96 -37 76 -43 -17 -5 -9 -7 25 -6 l50 2 2 90 c4 144 -2
135 107 135 l93 0 6 137 c4 75 7 162 7 195 l0 58 -89 0 -90 0 -7 46 c-4 26 -4
105 0 175 l7 129 -25 0 c-14 0 -26 -4 -26 -10 0 -5 -22 -10 -50 -10 l-50 0 0
60 0 60 -95 0 c-52 0 -95 -4 -95 -9 0 -5 -53 -12 -117 -16 -65 -4 -120 -10
-123 -14 -3 -4 -142 -18 -310 -31 -168 -13 -307 -27 -310 -31 -3 -4 -70 -10
-150 -14 -80 -3 -222 -13 -316 -21 -151 -12 -178 -12 -220 1 -32 10 -93 15
-176 15 -71 0 -128 4 -128 8 0 5 -36 17 -80 27 -44 10 -80 22 -80 26 0 4 -24
13 -52 19 -29 7 -55 16 -58 20 -3 4 -20 11 -37 15 l-33 7 0 -61z m2410 -325
c117 -26 119 -23 -45 -50 -44 -8 -65 -14 -47 -15 17 0 32 -4 32 -8 0 -7 -813
-134 -853 -133 -10 0 -59 14 -109 32 -66 23 -86 33 -72 38 10 4 99 18 197 31
97 13 177 27 177 31 0 4 -12 8 -27 9 -34 1 558 87 607 88 19 0 82 -10 140 -23z
m-2183 -682 c-3 -3 -12 -4 -19 -1 -8 3 -5 6 6 6 11 1 17 -2 13 -5z m177 -180
c31 -26 56 -50 56 -54 0 -3 -36 -14 -81 -24 l-81 -17 -51 48 c-29 26 -53 50
-55 54 -2 5 79 26 149 38 4 0 32 -20 63 -45z m207 -171 l70 -58 -117 -3 -117
-3 -39 38 c-20 20 -35 39 -32 42 6 6 128 38 152 40 7 0 45 -25 83 -56z m-171
-71 c0 -15 -93 -32 -107 -20 -25 20 -12 28 47 28 33 0 60 -4 60 -8z"/>
<path d="M3048 2783 c12 -2 30 -2 40 0 9 3 -1 5 -23 4 -22 0 -30 -2 -17 -4z"/>
<path d="M470 1710 c0 -5 9 -10 20 -10 11 0 20 5 20 10 0 6 -9 10 -20 10 -11
0 -20 -4 -20 -10z"/>
<path d="M528 1713 c6 -2 18 -2 25 0 6 3 1 5 -13 5 -14 0 -19 -2 -12 -5z"/>
<path d="M443 1677 c4 -10 7 -34 7 -53 0 -33 1 -34 40 -34 22 0 40 3 40 6 0 3
-21 27 -47 53 -25 25 -43 38 -40 28z"/>
</g>
</svg>
